<svg width="45"
  height="45"
  viewBox="0 0 45 45"
  fill="none"
  xmlns="http://www.w3.org/2000/svg">
  <circle cx="22.0123"
    cy="22.0123"
    r="22.0123"
    fill="#E9EDF3" />
  <g clip-path="url(#clip0_1_142)">
    <path
      d="M31.0411 21.1028L22.2457 29.8981C21.1682 30.9756 19.7068 31.5809 18.183 31.5809C16.6592 31.5809 15.1978 30.9756 14.1203 29.8981C13.0428 28.8206 12.4375 27.3592 12.4375 25.8354C12.4375 24.3116 13.0428 22.8502 14.1203 21.7727L22.9157 12.9774C23.634 12.259 24.6083 11.8555 25.6241 11.8555C26.64 11.8555 27.6143 12.259 28.3326 12.9774C29.0509 13.6957 29.4545 14.6699 29.4545 15.6858C29.4545 16.7017 29.0509 17.676 28.3326 18.3943L19.5277 27.1896C19.1685 27.5488 18.6814 27.7506 18.1735 27.7506C17.6655 27.7506 17.1784 27.5488 16.8192 27.1896C16.4601 26.8305 16.2583 26.3433 16.2583 25.8354C16.2583 25.3275 16.4601 24.8403 16.8192 24.4812L24.9446 16.3653"
      stroke="#272B37"
      stroke-width="1.91411"
      stroke-linecap="round"
      stroke-linejoin="round" />
  </g>
  <defs>
    <clipPath id="clip0_1_142">
      <rect width="22.9693"
        height="22.9693"
        fill="white"
        transform="translate(10.5156 10.5293)" />
    </clipPath>
  </defs>
</svg>