<svg width="54"
  height="54"
  viewBox="0 0 54 54"
  fill="none"
  xmlns="http://www.w3.org/2000/svg">
  <circle cx="27"
    cy="27"
    r="27"
    fill="white" />
  <path
    d="M28.0026 34.6654C28.7098 34.6654 29.3881 34.3844 29.8882 33.8843C30.3883 33.3842 30.6693 32.7059 30.6693 31.9987C30.6693 31.2915 30.3883 30.6132 29.8882 30.1131C29.3881 29.613 28.7098 29.332 28.0026 29.332C27.2954 29.332 26.6171 29.613 26.117 30.1131C25.6169 30.6132 25.3359 31.2915 25.3359 31.9987C25.3359 32.7059 25.6169 33.3842 26.117 33.8843C26.6171 34.3844 27.2954 34.6654 28.0026 34.6654ZM36.0026 22.6654C36.7099 22.6654 37.3881 22.9463 37.8882 23.4464C38.3883 23.9465 38.6693 24.6248 38.6693 25.332V38.6654C38.6693 39.3726 38.3883 40.0509 37.8882 40.551C37.3881 41.0511 36.7099 41.332 36.0026 41.332H20.0026C19.2954 41.332 18.6171 41.0511 18.117 40.551C17.6169 40.0509 17.3359 39.3726 17.3359 38.6654V25.332C17.3359 24.6248 17.6169 23.9465 18.117 23.4464C18.6171 22.9463 19.2954 22.6654 20.0026 22.6654H21.3359V19.9987C21.3359 18.2306 22.0383 16.5349 23.2886 15.2847C24.5388 14.0344 26.2345 13.332 28.0026 13.332C28.8781 13.332 29.745 13.5045 30.5538 13.8395C31.3627 14.1745 32.0976 14.6656 32.7167 15.2847C33.3357 15.9037 33.8268 16.6386 34.1618 17.4475C34.4968 18.2563 34.6693 19.1232 34.6693 19.9987V22.6654H36.0026ZM28.0026 15.9987C26.9417 15.9987 25.9243 16.4201 25.1742 17.1703C24.424 17.9204 24.0026 18.9378 24.0026 19.9987V22.6654H32.0026V19.9987C32.0026 18.9378 31.5812 17.9204 30.831 17.1703C30.0809 16.4201 29.0635 15.9987 28.0026 15.9987Z"
    fill="#17BE79" />
  <path
    d="M31.0026 31.9987C31.0026 33.6556 29.6595 34.9987 28.0026 34.9987C26.3457 34.9987 25.0026 33.6556 25.0026 31.9987C25.0026 30.3418 26.3457 28.9987 28.0026 28.9987C29.6595 28.9987 31.0026 30.3418 31.0026 31.9987Z"
    fill="#17BE79" />
</svg>