<svg width="248"
  height="32"
  viewBox="0 0 248 32"
  fill="none"
  xmlns="http://www.w3.org/2000/svg">
  <path
    d="M0 16.1683C0 25.1922 7.49915 31.2227 17.7163 31.2227C20.9938 31.267 24.226 30.5254 27.085 29.073V23.8862C24.3229 25.5899 21.058 26.5003 17.7163 26.4984C11.1486 26.4984 5.93306 22.6238 5.93306 16.1683C5.93306 9.56289 10.9348 5.83841 17.7163 5.83841C21.0664 5.8236 24.3393 6.74924 27.085 8.48807V3.34498C24.2571 1.8161 21.0086 1.04467 17.7163 1.12022C7.16111 1.12022 0 6.83823 0 16.1683Z"
    fill="#272B37" />
  <path
    d="M56.8806 10.5335C56.8806 5.80615 52.2316 2.23032 46.0541 2.23032H31.7954V30.1094H37.6617V19.0123H45.1412L53.187 30.1094H60.058L50.9224 17.988C54.2271 16.6789 56.8806 14.0365 56.8806 10.5335ZM44.8509 14.7759H37.6333V6.65462H45.7638C48.8066 6.65462 50.9366 7.95763 50.9366 10.788C50.9649 13.4789 47.9221 14.7456 44.8793 14.7456L44.8509 14.7759Z"
    fill="#272B37" />
  <path
    d="M72.6011 18.1109L63.6804 2.23032H57.7028L68.1797 20.604H71.2073L65.9495 30.1094H71.6869L87.143 2.23032H81.4053L72.6011 18.1109Z"
    fill="#272B37" />
  <path
    d="M104.411 2.23032H90.6758V30.1094H96.369V20.1092H104.555C110.592 20.1092 115.406 16.8668 115.406 11.1698C115.406 5.47277 110.475 2.23032 104.411 2.23032ZM96.3073 15.7517V6.62429H104.411C107.364 6.62429 109.514 8.30309 109.514 11.1698C109.514 14.0365 107.474 15.7517 104.521 15.7517H96.3073Z"
    fill="#272B37" />
  <path
    d="M145.63 3.77941C148.751 3.03882 151.684 1.75529 154.267 0C139.497 2.6407 124.307 2.68773 109.518 0.138561C111.557 1.74578 113.986 2.89198 116.607 3.48338V5.80768H128.24V30.1094H133.991V5.80768H145.63V3.77941Z"
    fill="#272B37" />
  <path
    d="M162.49 1.11516C152.014 1.11516 144.846 7.10326 144.846 16.1667C144.846 25.2302 152.014 31.2245 162.49 31.2245C172.965 31.2245 180.174 25.2677 180.174 16.1667C180.174 7.06576 173.006 1.11516 162.49 1.11516ZM162.49 26.4991C155.704 26.4991 150.711 22.6611 150.711 16.1667C150.711 9.67228 155.704 5.83444 162.49 5.83444C169.276 5.83444 174.309 9.71604 174.309 16.1667C174.309 22.6174 169.317 26.4991 162.49 26.4991Z"
    fill="#272B37" />
  <path
    d="M208.66 10.5335C208.66 5.80615 203.817 2.23032 197.382 2.23032H182.529V30.1094H188.64V19.0123H196.431L204.812 30.1094H211.969L202.454 17.988C205.896 16.6789 208.66 14.0365 208.66 10.5335ZM196.129 14.7759H188.61V6.65462H197.08C200.25 6.65462 202.468 7.95763 202.468 10.788C202.505 13.4789 199.328 14.7456 196.159 14.7456L196.129 14.7759Z"
    fill="#272B37" />
  <path
    d="M229.61 1.11516C219.132 1.11516 211.969 7.10326 211.969 16.1667C211.969 25.2302 219.132 31.2245 229.61 31.2245C240.088 31.2245 247.298 25.2677 247.298 16.1667C247.298 7.06576 240.135 1.11516 229.61 1.11516ZM229.61 26.4991C222.788 26.4991 217.836 22.6611 217.836 16.1667C217.836 9.67228 222.823 5.83444 229.61 5.83444C236.397 5.83444 241.431 9.71604 241.431 16.1667C241.431 22.6174 236.445 26.4991 229.61 26.4991Z"
    fill="#272B37" />
</svg>