<svg width="46"
  height="50"
  viewBox="0 0 46 50"
  fill="none"
  xmlns="http://www.w3.org/2000/svg">
  <path
    d="M43.8132 10.7958L25.0734 0.53722C24.4308 0.185295 23.7018 0 22.9598 0C22.2179 0 21.4892 0.185295 20.8467 0.53722L2.10681 10.7958C1.46545 11.1494 0.933274 11.6565 0.563561 12.2665C0.193847 12.8766 -0.000636862 13.5681 1.56676e-06 14.2717V34.7954C-0.000127041 35.4981 0.194508 36.1885 0.564231 36.7974C0.933953 37.4063 1.46599 37.9124 2.10681 38.2649L20.8467 48.53C21.4892 48.8819 22.2179 49.0671 22.9598 49.0671C23.7018 49.0671 24.4308 48.8819 25.0734 48.53L43.8132 38.2649C44.4548 37.9127 44.9879 37.4069 45.3588 36.798C45.7297 36.1892 45.9255 35.4986 45.9267 34.7954V14.2717C45.926 13.5676 45.7304 12.8759 45.3595 12.266C44.9886 11.656 44.4554 11.149 43.8132 10.7958Z"
    fill="#17BE79" />
  <path
    d="M24.7298 34.6376C22.3991 30.2802 20.0639 25.9251 17.7237 21.5722H10.7176L3.53282 15.6123C4.95975 18.5348 6.38667 21.4552 7.8136 24.3733H15.8331L22.9677 37.9155C23.567 36.7831 24.1447 35.7236 24.7298 34.6376Z"
    fill="white" />
  <path
    d="M34.4213 21.7452H27.7755L23.5522 30.2527L25.1427 33.4548L29.5418 24.5878H37.1556L41.2163 15.6123L34.4213 21.7452Z"
    fill="white" />
</svg>