<svg width="54"
  height="54"
  viewBox="0 0 54 54"
  fill="none"
  xmlns="http://www.w3.org/2000/svg">
  <circle cx="27"
    cy="27"
    r="27"
    fill="white" />
  <path
    d="M37.699 17.1854C37.699 17.1854 40.1965 16.2764 39.9876 18.4838C39.9188 19.3928 39.2946 22.5746 38.8086 26.0156L37.1436 36.2095C37.1436 36.2095 37.0048 37.7029 35.7557 37.9627C34.5073 38.2219 32.6341 37.0537 32.2869 36.7939C32.0092 36.5989 27.0837 33.6769 25.3493 32.2489C24.8633 31.8589 24.3079 31.0802 25.4187 30.1712L32.7028 23.678C33.5353 22.8992 34.3678 21.0812 30.899 23.2886L21.1856 29.4566C21.1856 29.4566 20.0754 30.1064 17.9945 29.522L13.4843 28.223C13.4843 28.223 11.8193 27.2492 14.6639 26.2754C21.6021 23.2238 30.1359 20.1074 37.6978 17.1854H37.699Z"
    fill="#17BE79" />
</svg>